<svg width="18" height="18" viewBox="0 0 18 18" fill="none" xmlns="http://www.w3.org/2000/svg">
<g clip-path="url(#clip0)">
<path d="M16.5938 11.0988H16.8012C17.2969 11.0988 17.7012 10.6945 17.7012 10.1988C17.7012 9.70313 17.2969 9.29883 16.8012 9.29883H16.5059C16.4215 9.26719 16.2 8.90508 16.2 8.24766C16.2 7.59024 16.4215 7.22461 16.4988 7.19649H16.7977C17.2934 7.19649 17.6977 6.79219 17.6977 6.29648C17.6977 5.80078 17.2934 5.39648 16.7977 5.39648H13.1906C14.0098 4.70742 14.3121 3.57891 13.9465 2.57344C13.5809 1.56797 12.6211 0.896484 11.5523 0.896484H3.30118C2.80547 0.896484 2.40118 1.30078 2.40118 1.79648C2.40118 2.29219 2.80547 2.69648 3.30118 2.69648H3.41719C3.55782 2.92148 3.6211 3.18164 3.6 3.44531C3.6211 3.70898 3.55782 3.97266 3.41719 4.19414H3.30118C2.80547 4.19414 2.40118 4.59844 2.40118 5.09414C2.40118 5.58984 2.80547 5.99414 3.30118 5.99414H3.5086C2.80899 6.53203 2.40118 7.36172 2.40118 8.24414C2.40118 9.12656 2.80899 9.95625 3.5086 10.4941H0.900003C0.4043 10.5012 2.73628e-06 10.902 2.73628e-06 11.4012C-0.00351289 11.6402 0.091409 11.8688 0.263675 12.034C0.432425 12.2063 0.66094 12.3012 0.900003 12.3012H1.23047C1.41328 12.7793 1.50469 13.2891 1.50117 13.8023C1.50469 14.3156 1.41328 14.8219 1.23047 15.3035H0.900003C0.4043 15.3 2.73628e-06 15.7043 2.73628e-06 16.2C-0.00351289 16.4391 0.091409 16.6676 0.263675 16.8328C0.432425 17.0051 0.66094 17.1 0.900003 17.1H14.6074C16.3617 17.1211 17.8383 15.7852 17.9895 14.0379C18.0598 13.0816 17.7082 12.143 17.0332 11.468C16.8961 11.3309 16.7484 11.2078 16.5938 11.0988ZM17.1 10.1988C17.1 10.3641 16.9664 10.4977 16.8012 10.4977H9.90001V9.89649H16.8012C16.9664 9.9 17.1 10.0336 17.1 10.1988ZM9.29883 14.1012L8.06836 13.4859C7.89961 13.4016 7.69922 13.4016 7.53047 13.4859L6.29649 14.1012V8.70117H9.29532V10.8V10.8035V10.807V12.0023V12.0059V12.0094L9.29883 14.1012ZM15.7922 9.29883H9.90001V8.69766C9.90001 8.36719 9.63282 8.09649 9.29883 8.09649H6.3C5.96954 8.09649 5.69883 8.36367 5.69883 8.69766V9.29883H5.24883C4.66875 9.29883 4.19766 8.82774 4.19766 8.24766C4.19766 7.66758 4.66875 7.19649 5.24883 7.19649H15.7922C15.5356 7.875 15.5356 8.62383 15.7922 9.29883ZM4.08516 2.7H11.5488C11.9637 2.7 12.2977 3.0375 12.2977 3.44883C12.2977 3.86016 11.9602 4.19766 11.5488 4.19766H4.08516C4.1625 3.95508 4.20118 3.70195 4.19766 3.44883C4.20469 3.1957 4.16602 2.94258 4.08516 2.7ZM3.30118 5.4C3.13594 5.4 3.00235 5.26641 3.00235 5.10117C3.00235 4.93594 3.13594 4.80234 3.30118 4.80234H11.5523C12.2977 4.80234 12.9023 4.19766 12.9023 3.45234C12.9023 2.70703 12.2977 2.10234 11.5523 2.10234H3.30118C3.13594 2.10234 3.00235 1.96875 3.00235 1.80352C3.00235 1.63828 3.13594 1.50469 3.30118 1.50469H11.5523C12.6281 1.50469 13.5035 2.37656 13.5035 3.45586C13.5035 4.53516 12.6316 5.40703 11.5523 5.40703H3.30118V5.4ZM2.99883 8.25117C2.99883 7.01016 4.00782 6.00117 5.24883 6.00117H16.7977C16.9629 6.00117 17.0965 6.13477 17.0965 6.3C17.0965 6.46523 16.9629 6.59883 16.7977 6.59883H5.24883C4.33828 6.59883 3.6 7.33711 3.6 8.24766C3.6 9.1582 4.33828 9.89649 5.24883 9.89649H5.69883V10.4977H5.24883C4.00782 10.4977 3.00235 9.49219 2.99883 8.25117ZM0.68555 11.6086C0.6293 11.5523 0.597659 11.4785 0.601175 11.4012C0.601175 11.2359 0.734769 11.1023 0.900003 11.1023H5.69883V11.7035H0.900003C0.819144 11.7 0.7418 11.6684 0.68555 11.6086ZM1.87383 12.3012H5.70235V14.1012C5.70235 14.3086 5.81133 14.502 5.98711 14.6109C6.16289 14.7199 6.38438 14.7305 6.57071 14.6355L7.80118 14.0203L9.03164 14.6355C9.21797 14.7305 9.43946 14.7199 9.61524 14.6074C9.79102 14.4984 9.90001 14.3051 9.90001 14.0977V12.2977H14.6988C15.5109 12.2977 16.1754 12.9445 16.2 13.7566C16.207 14.1504 16.0524 14.5301 15.7746 14.8113C15.4723 15.1207 15.0574 15.2965 14.625 15.3H1.87383C2.02852 14.8148 2.10235 14.3086 2.10235 13.7988C2.10235 13.2926 2.025 12.7863 1.87383 12.3012ZM17.3918 13.9957C17.2617 15.4301 16.0488 16.5234 14.6074 16.4988H0.900003C0.819144 16.4988 0.7418 16.4672 0.68555 16.4074C0.6293 16.3512 0.597659 16.2773 0.601175 16.2C0.601175 16.0348 0.734769 15.9012 0.900003 15.9012H14.625C15.2191 15.8977 15.7887 15.6586 16.2035 15.2332C16.5973 14.8395 16.8117 14.3016 16.8012 13.7461C16.7695 12.6105 15.8379 11.7035 14.7024 11.7035H9.90001V11.1023H14.6988C15.4477 11.1023 16.1649 11.4152 16.6746 11.9637C17.1879 12.5121 17.4445 13.2469 17.3918 13.9957Z" fill="#908F8F"/>
</g>
<defs>
<clipPath id="clip0">
<rect width="18" height="18" fill="white"/>
</clipPath>
</defs>
</svg>
