<svg width="17" height="17" viewBox="0 0 17 17" fill="none" xmlns="http://www.w3.org/2000/svg">
<path d="M8.5 0.398438L0 7.77949L0.869922 8.78223L1.6668 8.0916V14.616C1.6668 15.715 2.55996 16.6082 3.65898 16.6082H7.37109V10.1004H9.69531V16.6016H13.3443C14.4434 16.6016 15.3365 15.7084 15.3365 14.6094V8.08828L16.1334 8.77891L17.0033 7.77617L8.5 0.398438ZM14.0084 14.6127C14.0084 14.9779 13.7096 15.2768 13.3443 15.2768H11.0234V8.77227H6.04629V15.2734H3.65898C3.29375 15.2734 2.99492 14.9746 2.99492 14.6094V6.93613L8.5 2.15488L14.0084 6.93613V14.6127Z" fill="#01B5A2"/>
</svg>
