<svg width="21" height="17" viewBox="0 0 21 17" fill="none" xmlns="http://www.w3.org/2000/svg">
<path d="M20.5929 2.21827H19.2089V1.74505C19.214 1.55677 19.0969 1.38885 18.9137 1.33797C17.9571 1.08864 16.97 0.961426 15.9777 0.961426C14.3494 0.961426 12.1308 1.32779 10.4924 2.9968C8.86407 1.31253 6.63024 0.961426 5.00703 0.961426C4.01478 0.961426 3.02762 1.08355 2.071 1.33797C1.8929 1.38885 1.77078 1.55677 1.77587 1.74505V2.21318H0.407075C0.183184 2.21318 0 2.39637 0 2.62026V15.6212C0 15.8451 0.183184 16.0283 0.407075 16.0283C0.478314 16.0283 0.544463 16.0079 0.605525 15.9774C0.646232 15.9571 4.71699 13.7283 10.4008 15.1633H10.4618H10.4975C10.528 15.1684 10.5636 15.1684 10.5941 15.1633C16.2932 13.7181 20.3639 15.9418 20.3894 15.9774C20.5166 16.0487 20.6693 16.0487 20.7965 15.9774C20.9237 15.9062 21 15.7739 21 15.6263V2.62535C21 2.40145 20.8168 2.21827 20.5929 2.21827ZM0.814151 14.9801V3.03242H1.78604V13.2398C1.78604 13.4637 1.96414 13.6469 2.18803 13.652C2.20838 13.652 2.23383 13.652 2.25418 13.6469C3.09377 13.5197 3.94863 13.4485 4.7984 13.4434C5.97892 13.423 7.15435 13.6011 8.27381 13.9675C5.74485 13.6673 3.17519 14.0133 0.814151 14.9801ZM4.7984 12.6394C4.05549 12.6394 3.31766 12.6903 2.58493 12.7819V2.07071C3.37873 1.89261 4.18779 1.80611 4.99685 1.80102C6.51829 1.80102 8.61982 2.15212 10.0751 3.79569L10.0853 13.937C9.2457 13.3823 7.59196 12.6394 4.7984 12.6394ZM10.9045 3.79569C12.3598 2.16739 14.4614 1.80102 15.9828 1.80102C16.7969 1.80102 17.606 1.89261 18.3947 2.07071V12.7819C17.662 12.6903 16.9292 12.6394 16.1914 12.6343C13.4131 12.6343 11.7594 13.3772 10.8994 13.9319V3.79569H10.9045ZM20.1808 14.9801C17.8146 14.0133 15.2399 13.6673 12.7008 13.9726C13.8253 13.6011 15.0058 13.4281 16.1914 13.4485C17.0463 13.4536 17.9062 13.5197 18.7509 13.6469C18.9748 13.6825 19.1783 13.5299 19.214 13.306C19.219 13.2856 19.219 13.2602 19.219 13.2398V3.03242H20.2011L20.1808 14.9801Z" fill="#908F8F"/>
</svg>
