<svg width="15" height="15" viewBox="0 0 15 15" fill="none" xmlns="http://www.w3.org/2000/svg">
<path d="M7.44581 8.08242C7.46134 8.08242 7.47687 8.08242 7.49551 8.08242C7.50172 8.08242 7.50793 8.08242 7.51414 8.08242C7.52346 8.08242 7.53589 8.08242 7.54521 8.08242C8.45533 8.06689 9.19151 7.74695 9.7351 7.13502C10.931 5.78691 10.7322 3.47588 10.7105 3.25533C10.6328 1.59971 9.85003 0.807621 9.20393 0.437979C8.72247 0.161524 8.16024 0.0124249 7.53278 0H7.51104C7.50793 0 7.50172 0 7.49861 0H7.47998C7.13518 0 6.45802 0.0559122 5.80882 0.425554C5.15651 0.795196 4.36132 1.58729 4.28366 3.25533C4.26192 3.47588 4.06312 5.78691 5.25902 7.13502C5.7995 7.74695 6.53568 8.06689 7.44581 8.08242ZM5.11303 3.33299C5.11303 3.32367 5.11613 3.31435 5.11613 3.30814C5.21864 1.08097 6.79971 0.841789 7.47687 0.841789H7.48929C7.49551 0.841789 7.50482 0.841789 7.51414 0.841789C8.35283 0.860427 9.77859 1.20211 9.87488 3.30814C9.87488 3.31746 9.87488 3.32678 9.87799 3.33299C9.88109 3.35473 10.0985 5.46697 9.11075 6.579C8.71936 7.02009 8.19752 7.23752 7.51104 7.24374C7.50483 7.24374 7.50172 7.24374 7.49551 7.24374C7.48929 7.24374 7.48619 7.24374 7.47998 7.24374C6.7966 7.23752 6.27165 7.02009 5.88337 6.579C4.89869 5.47318 5.10992 3.35163 5.11303 3.33299Z" fill="#908F8F"/>
<path d="M13.8787 11.9155C13.8787 11.9124 13.8787 11.9093 13.8787 11.9062C13.8787 11.8814 13.8756 11.8565 13.8756 11.8285C13.857 11.2135 13.8166 9.77532 12.4685 9.3156C12.4592 9.3125 12.4467 9.30939 12.4374 9.30628C11.0365 8.94907 9.87168 8.14144 9.85925 8.13213C9.66977 7.99856 9.40885 8.04515 9.27528 8.23463C9.14172 8.42411 9.18831 8.68504 9.37779 8.8186C9.43059 8.85588 10.6669 9.71631 12.2138 10.1139C12.9375 10.3717 13.0183 11.1452 13.04 11.8534C13.04 11.8814 13.04 11.9062 13.0431 11.9311C13.0462 12.2106 13.0276 12.6424 12.9779 12.8909C12.4747 13.1767 10.5022 14.1644 7.50162 14.1644C4.51343 14.1644 2.52854 13.1735 2.02223 12.8878C1.97253 12.6393 1.95078 12.2075 1.957 11.9279C1.957 11.9031 1.9601 11.8782 1.9601 11.8503C1.98185 11.1421 2.06261 10.3686 2.78636 10.1108C4.33327 9.7132 5.56955 8.84967 5.62235 8.8155C5.81183 8.68193 5.85843 8.42101 5.72486 8.23153C5.59129 8.04205 5.33037 7.99545 5.14089 8.12902C5.12846 8.13834 3.96984 8.94596 2.56271 9.30318C2.55029 9.30628 2.54097 9.30939 2.53165 9.31249C1.18355 9.77532 1.14316 11.2135 1.12453 11.8254C1.12453 11.8534 1.12453 11.8782 1.12142 11.9031C1.12142 11.9062 1.12142 11.9093 1.12142 11.9124C1.11831 12.0739 1.11521 12.9033 1.27984 13.3195C1.3109 13.4003 1.36681 13.4686 1.44136 13.5152C1.53455 13.5774 3.76793 15 7.50473 15C11.2415 15 13.4749 13.5743 13.5681 13.5152C13.6395 13.4686 13.6986 13.4003 13.7296 13.3195C13.8849 12.9064 13.8818 12.077 13.8787 11.9155Z" fill="#908F8F"/>
</svg>
