<svg width="23" height="25" viewBox="0 0 23 25" fill="none" xmlns="http://www.w3.org/2000/svg">
<g clip-path="url(#clip0)">
<path d="M16.4409 15.5282H15.3929L15.0292 15.1556C16.3176 13.6274 17.0944 11.6382 17.0944 9.46583C17.0944 4.6286 13.2723 0.707031 8.55026 0.707031C3.8282 0.707031 0 4.6286 0 9.46583C0 14.3031 3.8282 18.2246 8.55026 18.2246C10.677 18.2246 12.6127 17.4289 14.1045 16.1154L14.4683 16.488V17.5552L21.0458 24.2806L23.0062 22.2725L16.4409 15.5282ZM8.55026 15.5282C5.28304 15.5282 2.63227 12.8127 2.63227 9.46583C2.63227 6.11892 5.28304 3.4035 8.55026 3.4035C11.8175 3.4035 14.4683 6.11892 14.4683 9.46583C14.4683 12.8127 11.8175 15.5282 8.55026 15.5282Z" fill="#01B5A2"/>
</g>
<defs>
<clipPath id="clip0">
<rect width="23" height="23.561" fill="white" transform="translate(0 0.707031)"/>
</clipPath>
</defs>
</svg>
