<svg width="26" height="18" viewBox="0 0 26 18" fill="none" xmlns="http://www.w3.org/2000/svg">
<g clip-path="url(#clip0)">
<path d="M6.47269 9.61379V14.9304C6.47269 15.1557 6.65486 15.3379 6.88018 15.3379C7.1055 15.3379 7.28767 15.1557 7.28767 14.9304V9.61379C7.28767 9.38847 7.1055 9.2063 6.88018 9.2063C6.65486 9.2063 6.47269 9.38847 6.47269 9.61379Z" fill="#908F8F"/>
<path d="M10.9791 9.52268L9.94834 14.0003L8.91763 9.52268C8.88407 9.37886 8.7786 9.2638 8.63957 9.22545C8.50055 9.18231 8.34714 9.21586 8.24167 9.31654C8.1362 9.41721 8.08826 9.56583 8.12182 9.70965L9.34909 15.0262C9.39224 15.2132 9.55523 15.3426 9.747 15.3426H10.1545C10.3462 15.3426 10.5092 15.2132 10.5524 15.0262L11.7797 9.70965C11.8324 9.48912 11.6934 9.2686 11.4728 9.22066C11.2523 9.17272 11.0318 9.30216 10.9791 9.52268Z" fill="#908F8F"/>
<path d="M3.19836 9.2063C2.97304 9.2063 2.79086 9.38847 2.79086 9.61379V14.9304C2.79086 15.1557 2.97304 15.3379 3.19836 15.3379H5.24541C5.47073 15.3379 5.6529 15.1557 5.6529 14.9304C5.6529 14.7051 5.47073 14.5229 5.24541 14.5229H3.60585V9.61379C3.60585 9.38847 3.42368 9.2063 3.19836 9.2063Z" fill="#908F8F"/>
<path d="M15.0636 10.0213C15.2889 10.0213 15.4711 9.83911 15.4711 9.61379C15.4711 9.38847 15.2889 9.2063 15.0636 9.2063H13.0165C12.7912 9.2063 12.609 9.38847 12.609 9.61379V14.9304C12.609 15.1557 12.7912 15.3379 13.0165 15.3379H15.0636C15.2889 15.3379 15.4711 15.1557 15.4711 14.9304C15.4711 14.7051 15.2889 14.5229 15.0636 14.5229H13.4288V12.8881H15.0636C15.2889 12.8881 15.4711 12.7059 15.4711 12.4806C15.4711 12.2553 15.2889 12.0731 15.0636 12.0731H13.4288V10.0261H15.0636V10.0213Z" fill="#908F8F"/>
<path d="M2.79086 17.3849H16.6984C17.6524 17.3849 18.4769 16.7281 18.6879 15.798C18.7646 15.4672 18.7454 15.7453 18.7454 10.6924C18.7454 10.4671 18.5632 10.2849 18.3379 10.2849C18.1126 10.2849 17.9304 10.4671 17.9304 10.6924C17.9304 15.7645 17.9448 15.4001 17.8969 15.6111C17.7722 16.1672 17.2736 16.5651 16.7031 16.5651H2.79086C2.1149 16.5651 1.56358 16.0138 1.56358 15.3378V9.20144C1.56358 8.52548 2.1149 7.97417 2.79086 7.97417H15.2074C15.4327 7.97417 15.6149 7.79199 15.6149 7.56667C15.6149 7.34135 15.4327 7.15918 15.2074 7.15918H2.79086C1.65947 7.15918 0.743805 8.07484 0.743805 9.20623V15.3426C0.743805 16.4692 1.65947 17.3849 2.79086 17.3849Z" fill="#908F8F"/>
<path d="M21.6937 14.4653C22.0581 14.5228 22.432 14.4126 22.7101 14.1633C24.5462 12.5285 25.4906 10.1171 25.2605 7.66736C24.9729 4.55124 22.8443 1.91452 19.8576 0.97489C16.8709 0.0352591 13.6158 0.974889 11.5927 3.36232C11.2907 3.69311 11.1996 4.16292 11.3434 4.58959C11.492 5.01147 11.8564 5.32308 12.2974 5.39499C12.7385 5.47169 13.1843 5.29911 13.4624 4.94435C14.7472 3.43423 16.7655 2.76306 18.6975 3.20412C20.6295 3.64517 22.1588 5.12652 22.6573 7.04893C23.1559 8.96654 22.5423 11.0088 21.0705 12.3367C20.711 12.6484 20.5671 13.1421 20.7014 13.5976C20.8356 14.053 21.2239 14.3886 21.6937 14.4653ZM21.6218 12.9408C23.3237 11.4115 24.0332 9.05763 23.4579 6.84279C22.8827 4.62794 21.1185 2.91647 18.8892 2.40351C16.66 1.89055 14.3253 2.66718 12.8439 4.41701C12.7433 4.53686 12.5851 4.58959 12.4317 4.55603C12.2783 4.51768 12.1632 4.39783 12.1296 4.24442C12.1057 4.11978 12.1344 3.99034 12.2207 3.89446C14.0281 1.75632 16.9428 0.917361 19.6131 1.75632C22.2834 2.59527 24.1866 4.95873 24.4455 7.74407C24.6565 9.93494 23.8079 12.0923 22.1636 13.5544C22.0581 13.6647 21.8951 13.703 21.7513 13.6599C21.6074 13.6168 21.4972 13.4921 21.4684 13.3387C21.4397 13.1901 21.4972 13.0367 21.6218 12.9408Z" fill="#908F8F"/>
<path d="M19.1002 10.9224C19.3063 11.2772 19.6754 11.5073 20.0877 11.5313C20.5 11.5553 20.8931 11.3731 21.1424 11.0423C22.4416 9.25892 22.2594 6.79478 20.7062 5.22713C19.1529 3.65949 16.6888 3.44855 14.8958 4.72855C14.5554 4.98264 14.3684 5.39493 14.4068 5.82159C14.4451 6.24826 14.6992 6.6174 15.0828 6.80917C15.4807 7.01531 15.9553 6.98654 16.3244 6.72767C17.1394 6.1428 18.2612 6.23868 18.9659 6.95299C19.6706 7.6673 19.7569 8.7891 19.1625 9.59929C18.8796 9.98761 18.8557 10.5102 19.1002 10.9224ZM17.8489 5.54354C17.1394 5.46204 16.4203 5.64901 15.8402 6.06609C15.7156 6.138 15.5622 6.14279 15.4375 6.07568C15.3129 6.00856 15.2266 5.88392 15.217 5.7401C15.2026 5.60586 15.2601 5.48122 15.3704 5.39972C16.8422 4.34024 18.8605 4.51282 20.1357 5.79762C21.4109 7.08243 21.5595 9.10551 20.4856 10.5677C20.3993 10.6732 20.2699 10.7355 20.1309 10.7259C19.9966 10.7163 19.872 10.6396 19.8049 10.5197C19.7234 10.3855 19.7282 10.2177 19.8145 10.0931C20.4185 9.2733 20.5432 8.18985 20.1357 7.25501C19.7378 6.31059 18.8652 5.66339 17.8489 5.54354Z" fill="#908F8F"/>
<path d="M16.2909 8.38645C16.2909 9.06241 16.8422 9.61372 17.5181 9.61372C18.1941 9.61372 18.7454 9.06241 18.7454 8.38645C18.7454 7.71049 18.1941 7.15918 17.5181 7.15918C16.8374 7.15918 16.2909 7.71049 16.2909 8.38645ZM17.9256 8.38645C17.9256 8.61177 17.7435 8.79394 17.5181 8.79394C17.2928 8.79394 17.1106 8.61177 17.1106 8.38645C17.1106 8.16113 17.2928 7.97896 17.5181 7.97896C17.7435 7.97896 17.9256 8.16113 17.9256 8.38645Z" fill="#908F8F"/>
</g>
<defs>
<clipPath id="clip0">
<rect width="25.3636" height="18" fill="white"/>
</clipPath>
</defs>
</svg>
